<svg class="svg-icon" style="width:1em;height:1em;vertical-align:middle;fill:currentColor;overflow:hidden" viewBox="0 0 400 400" xmlns="http://www.w3.org/2000/svg" width="400" height="400"><path d="M52.344 143.242c7.148 0 12.93 -5.781 12.93 -12.93v-46.875c0 -2.5 2.031 -4.531 4.531 -4.531h26.992c1.641 0 3.164 0.898 3.945 2.344l10.469 18.75c5.352 9.609 15.547 15.586 26.563 15.586h192.422c2.5 0 4.531 2.031 4.531 4.531v10.195c0 7.148 5.781 12.93 12.93 12.93s12.93 -5.781 12.93 -12.93v-10.195c0 -16.758 -13.633 -30.391 -30.391 -30.391H137.773c-1.641 0 -3.164 -0.898 -3.945 -2.344l-10.469 -18.75c-5.352 -9.609 -15.547 -15.586 -26.563 -15.586h-26.992c-16.758 0 -30.391 13.633 -30.391 30.391v46.875c0 7.148 5.781 12.93 12.93 12.93M367.656 158.984c-5.664 -6.563 -13.867 -10.313 -22.539 -10.313H54.844c-8.672 0 -16.875 3.75 -22.539 10.313s-8.164 15.234 -6.875 23.789l20.82 138.867c2.188 14.688 14.57 25.313 29.375 25.313h248.633c14.609 0 27.227 -10.898 29.375 -25.313l20.82 -138.867c1.367 -8.555 -1.133 -17.227 -6.797 -23.789m-18.711 19.961L328.125 317.813c-0.273 1.875 -1.914 3.281 -3.828 3.281H75.703c-1.914 0 -3.516 -1.367 -3.828 -3.281l-20.82 -138.867c-0.234 -1.523 0.469 -2.578 0.898 -3.086s1.367 -1.328 2.93 -1.328h290.273c1.523 0 2.5 0.82 2.93 1.328 0.391 0.508 1.094 1.563 0.859 3.086" fill="#333"/><path d="M256.328 206.133H143.672c-7.148 0 -12.93 5.781 -12.93 12.93s5.781 12.93 12.93 12.93h112.617c7.148 0 12.93 -5.781 12.93 -12.93s-5.742 -12.93 -12.891 -12.93" fill="#1f7fc1"/></svg>