<?xml version="1.0" encoding="UTF-8"?>
<svg version="1.1" xmlns="http://www.w3.org/2000/svg" width="512" height="512">
<path d="M0 0 C2.0090294 -0.00271612 4.0180578 -0.00628052 6.02708435 -0.01062012 C11.44021183 -0.01967195 16.85326236 -0.01622999 22.26639104 -0.00986195 C27.95595191 -0.00476509 33.6455066 -0.00950351 39.33506775 -0.01263428 C48.88484875 -0.01626294 58.43459872 -0.01150345 67.984375 -0.00195312 C78.99583645 0.0089324 90.00722383 0.00540066 101.01868349 -0.00560594 C110.50618147 -0.01470649 119.99365726 -0.01595067 129.4811582 -0.0107286 C135.13312743 -0.00762449 140.78506194 -0.00715647 146.43702888 -0.01380157 C151.75182978 -0.01961493 157.06653593 -0.0155057 162.38132668 -0.00401306 C164.3218139 -0.00138783 166.26230921 -0.0020946 168.20279312 -0.00653839 C194.24431321 -0.06063795 212.76515343 4.20057825 231.8807373 23.11270142 C232.86880845 24.10500816 233.85671826 25.09747557 234.84448242 26.09008789 C235.91787215 27.15775908 236.99188605 28.22480306 238.06646729 29.29127502 C240.95342842 32.16045695 243.83092972 35.03894501 246.70614338 37.9198935 C249.1187171 40.33558021 251.53590129 42.74662781 253.95303702 45.1577484 C259.65935486 50.85007371 265.35790617 56.55009051 271.05151367 62.25512695 C276.90258085 68.11768016 282.76632706 73.96732548 288.63651299 79.8107298 C293.69972968 84.85171953 298.75507315 89.900511 303.80426002 94.95555323 C306.80971196 97.96435802 309.81791034 100.97026963 312.83368683 103.96872902 C315.66967216 106.78913439 318.49560514 109.61925525 321.3144455 112.45679283 C322.34330092 113.4893032 323.37548949 114.51850602 324.41143799 115.54389954 C338.83825275 129.83502247 346.53019928 145.12180776 346.84963989 165.57987976 C346.86259869 168.39058812 346.85058969 171.20079304 346.83618164 174.01147461 C346.83561636 175.56972751 346.83593636 177.12798093 346.83706665 178.68623352 C346.83763662 182.88384297 346.82594047 187.08133633 346.81191874 191.27891898 C346.79935154 195.6777866 346.79823618 200.07665736 346.79586792 204.47554016 C346.78967066 212.7908684 346.77328376 221.10614357 346.75316894 229.42144853 C346.73075512 238.89430915 346.71980276 248.3671724 346.70977807 257.84005296 C346.68891584 277.312995 346.65377423 296.78588775 346.60913086 316.25878906 C347.22183838 315.90437744 347.8345459 315.54996582 348.46582031 315.18481445 C349.27237061 314.72582764 350.0789209 314.26684082 350.90991211 313.79394531 C351.70824463 313.33640869 352.50657715 312.87887207 353.32910156 312.4074707 C356.36543712 310.87776101 358.26989776 310.59094244 361.60913086 311.25878906 C365.80377165 313.80282078 369.25147667 316.64486938 372.71850586 320.10253906 C373.63760742 321.0190625 374.55670898 321.93558594 375.50366211 322.87988281 C375.97239746 323.35280762 376.44113281 323.82573242 376.92407227 324.31298828 C378.36247908 325.76216235 379.8113266 327.20028079 381.26147461 328.63769531 C382.17541992 329.55421875 383.08936523 330.47074219 384.03100586 331.41503906 C384.86212891 332.24841797 385.69325195 333.08179688 386.54956055 333.94042969 C389.73782381 337.5293045 390.58031316 339.35103146 390.73413086 344.19628906 C389.85516235 351.02256397 385.38959915 356.68711939 381.60913086 362.25878906 C382.66100586 362.42314453 382.66100586 362.42314453 383.73413086 362.59082031 C398.15211362 365.00034732 398.15211362 365.00034732 402.30078125 368.8137207 C404.23675768 372.43170987 404.05712222 375.99921122 404.04272461 380.00488281 C404.04796646 380.85301041 404.05320831 381.701138 404.05860901 382.57496643 C404.06502341 384.36612861 404.06369972 386.15733295 404.05517578 387.94848633 C404.04667049 390.68354629 404.07542577 393.41651374 404.10717773 396.15136719 C404.10879005 397.8942051 404.10821163 399.63704671 404.10522461 401.37988281 C404.12207558 402.60196693 404.12207558 402.60196693 404.13926697 403.84873962 C404.09107473 407.79168244 403.89288488 409.80077634 401.76928711 413.22851562 C399.0512292 415.783146 396.75047652 416.56590236 393.17163086 417.57128906 C392.05916992 417.89742188 390.94670898 418.22355469 389.80053711 418.55957031 C386.9350551 419.18738094 384.52514512 419.4059524 381.60913086 419.25878906 C382.25881836 420.33257812 382.90850586 421.40636719 383.57788086 422.51269531 C384.42242764 423.94842483 385.26613342 425.38464929 386.10913086 426.82128906 C386.75301758 427.87799805 386.75301758 427.87799805 387.40991211 428.95605469 C390.04821161 433.49979271 391.71852123 436.89874539 390.60913086 442.25878906 C388.61827034 445.27251685 386.16531497 447.71982605 383.60913086 450.25878906 C382.84133301 451.0501123 382.07353516 451.84143555 381.2824707 452.65673828 C378.8089531 455.19255116 376.30725486 457.69724365 373.79663086 460.19628906 C372.93875977 461.05802734 372.08088867 461.91976563 371.19702148 462.80761719 C370.37782227 463.62552734 369.55862305 464.4434375 368.71459961 465.28613281 C367.97363037 466.02597412 367.23266113 466.76581543 366.46923828 467.52807617 C363.3917869 470.39145101 360.97586535 470.59689646 356.79272461 470.54394531 C353.05592788 470.05595576 350.2459354 468.25126576 347.10913086 466.25878906 C346.47749023 465.87722656 345.84584961 465.49566406 345.19506836 465.10253906 C343.6568282 464.1702723 342.13153132 463.21670396 340.60913086 462.25878906 C340.29459961 463.43957031 339.98006836 464.62035156 339.65600586 465.83691406 C339.22441346 467.39439967 338.7920829 468.95168086 338.35913086 470.50878906 C338.15416992 471.28609375 337.94920898 472.06339844 337.73803711 472.86425781 C336.49091919 477.28585772 335.47048413 480.44261412 331.60913086 483.25878906 C328.25790194 484.38149762 325.09656622 484.38147699 321.58064461 484.37739277 C320.33774198 484.37836722 319.09483935 484.37934167 317.814273 484.38034564 C316.43258837 484.37632702 315.05090403 484.37220688 313.66921997 484.36799622 C312.20319189 484.36716611 310.73716352 484.36676722 309.27113521 484.36676329 C305.23682486 484.36542914 301.20254781 484.35772677 297.1682477 484.34894788 C292.8190015 484.34054017 288.46975104 484.33787248 284.12049866 484.33435059 C273.61253329 484.3245026 263.10459467 484.30486522 252.59664613 484.28408983 C247.64636013 484.27450472 242.69607239 484.26593267 237.74578476 484.25723839 C221.28548584 484.22793091 204.82519465 484.1961263 188.36491585 484.15701771 C184.09313079 484.14689748 179.82134571 484.13678604 175.54956055 484.12670898 C174.48784543 484.12420211 173.4261303 484.12169524 172.332242 484.11911239 C155.14423255 484.07898921 137.9562444 484.05579216 120.76819731 484.03973035 C103.11490625 484.02296471 85.46169195 483.99123702 67.80845344 483.94484633 C57.89963203 483.91917268 47.99089187 483.89997685 38.08203506 483.89747047 C29.64044224 483.89528401 21.19901152 483.87947438 12.75748189 483.84613798 C8.45398481 483.82955254 4.15072521 483.81925905 -0.15280342 483.82644463 C-4.10113848 483.83288323 -8.04898122 483.82065411 -11.99722911 483.79423972 C-13.41725447 483.78790677 -14.83732934 483.78812065 -16.25734721 483.7959554 C-32.75670149 483.87835292 -48.30018773 479.50618977 -60.67602539 468.09863281 C-74.6500461 453.10600467 -78.70335462 437.72124655 -78.65829468 417.77523804 C-78.66203505 416.20248498 -78.66663811 414.62973378 -78.67202532 413.0569855 C-78.68422312 408.75085618 -78.68399866 404.44480474 -78.68163657 400.1386621 C-78.68122758 395.48817109 -78.69227543 390.83770477 -78.70175171 386.18722534 C-78.71834548 377.08141463 -78.72386054 367.97562983 -78.72497647 358.86980526 C-78.7259278 351.4650148 -78.73004235 344.06023286 -78.73637772 336.6554451 C-78.75398641 315.6456632 -78.76321728 294.63590172 -78.76171677 273.62611239 C-78.76163686 272.49410956 -78.76155694 271.36210673 -78.76147461 270.19580078 C-78.76139285 269.06241011 -78.76131109 267.92901944 -78.76122685 266.76128359 C-78.76041426 248.40055231 -78.77954606 230.03990312 -78.80775134 211.67919557 C-78.83650664 192.81101531 -78.85029015 173.94287506 -78.84856379 155.07467234 C-78.84790076 144.48791131 -78.85335485 133.90123633 -78.87491989 123.31449509 C-78.89316659 114.29923545 -78.89745047 105.28410085 -78.88390104 96.2688307 C-78.87738874 91.67351766 -78.87719104 87.07844427 -78.89460754 82.4831543 C-78.91042079 78.26731908 -78.90739127 74.05191189 -78.89003928 69.83608659 C-78.88698741 68.31994606 -78.89053252 66.80377292 -78.90175943 65.2876709 C-79.03268132 46.33578715 -74.1075227 30.52529384 -60.83227539 16.50878906 C-43.45971772 0.49823991 -22.21576356 -0.05093341 0 0 Z " fill="#E7ECF1" transform="translate(93.390869140625,13.7412109375)"/>
<path d="M0 0 C16.1337223 8.79783886 31.90095548 20.94487265 43.4140625 35.31640625 C44.02636719 36.06792969 44.63867188 36.81945312 45.26953125 37.59375 C55.55164185 50.91329048 62.65894344 65.95130223 66.4140625 82.31640625 C66.65769531 83.37601562 66.90132812 84.435625 67.15234375 85.52734375 C69.51716045 98.04317636 68.87441651 111.28978606 67.9140625 123.94140625 C67.84058594 125.03066406 67.76710938 126.11992187 67.69140625 127.2421875 C67.4140625 130.31640625 67.4140625 130.31640625 66.85546875 133.296875 C66.4339336 136.44752434 66.31320418 138.32039943 67.4140625 141.31640625 C70.6254997 144.05677227 73.96346611 146.05935019 77.6328125 148.1171875 C82.81092873 151.02137845 87.61288159 154.7357205 91.4140625 159.31640625 C91.4140625 163.31640625 91.4140625 163.31640625 89.8828125 165.24609375 C88.57291383 166.54039839 87.26041883 167.8320808 85.9453125 169.12109375 C83.82602364 172.15946197 83.84870584 173.65925536 84.4140625 177.31640625 C85.67962767 180.09906406 87.25847199 182.62598673 88.9140625 185.19140625 C89.55794922 186.22394531 89.55794922 186.22394531 90.21484375 187.27734375 C91.2693382 188.96453486 92.34010175 190.64153889 93.4140625 192.31640625 C90.23621801 195.49425074 85.66835295 195.71561821 81.35546875 196.55273438 C80.65550781 196.70806641 79.95554687 196.86339844 79.234375 197.0234375 C78.27942139 197.21643433 78.27942139 197.21643433 77.30517578 197.41333008 C74.31620747 198.84067242 73.13007621 200.49149006 71.4140625 203.31640625 C71.04707751 206.26279781 70.89837851 208.82078008 70.953125 211.7578125 C70.95404144 212.56250473 70.95495789 213.36719696 70.9559021 214.1962738 C70.96192556 215.89157029 70.9776339 217.58685675 71.00244141 219.28198242 C71.03899239 221.87393469 71.04346021 224.46445726 71.04296875 227.05664062 C71.05279931 228.70704358 71.06445605 230.35743687 71.078125 232.0078125 C71.08035065 232.78081192 71.08257629 233.55381134 71.08486938 234.35023499 C71.17249663 239.64585777 71.17249663 239.64585777 73.4140625 244.31640625 C75.20028922 245.34052768 75.20028922 245.34052768 77.3515625 245.87890625 C78.14304687 246.11351562 78.93453125 246.348125 79.75 246.58984375 C80.62914062 246.82960938 81.50828125 247.069375 82.4140625 247.31640625 C83.41695312 247.59742188 84.41984375 247.8784375 85.453125 248.16796875 C88.10272212 248.9005447 90.75585352 249.61583155 93.4140625 250.31640625 C93.0840625 251.30640625 92.7540625 252.29640625 92.4140625 253.31640625 C85.43336373 252.61325334 78.73675469 251.11434496 71.9140625 249.50390625 C70.76510498 249.23618408 69.61614746 248.96846191 68.43237305 248.69262695 C60.82545509 246.91153404 53.24238223 245.05324393 45.68359375 243.078125 C39.19453542 241.17305235 39.19453542 241.17305235 33.1015625 242.75390625 C32.5446875 243.26953125 31.9878125 243.78515625 31.4140625 244.31640625 C30.7540625 244.31640625 30.0940625 244.31640625 29.4140625 244.31640625 C29.34058594 245.22519531 29.34058594 245.22519531 29.265625 246.15234375 C27.50979937 265.82969996 27.50979937 265.82969996 19.8515625 272.56640625 C16.17554456 275.63370724 14.09899436 276.4442424 9.28100586 276.52514648 C8.20906479 276.5444371 7.13712372 276.56372772 6.03269958 276.58360291 C1.10817776 276.64137362 -3.81619609 276.69066156 -8.7409668 276.72143555 C-11.33355051 276.74297967 -13.9260622 276.77703907 -16.51831055 276.82397461 C-20.26123472 276.89113263 -24.00265114 276.91846706 -27.74609375 276.9375 C-28.89642593 276.96533066 -30.04675812 276.99316132 -31.23194885 277.02183533 C-38.82748619 277.00257231 -43.97191368 275.61537598 -49.5859375 270.31640625 C-54.76298714 263.14668386 -55.96207749 253.96762603 -55.5859375 245.31640625 C-56.978125 244.88328125 -56.978125 244.88328125 -58.3984375 244.44140625 C-61.5859375 243.31640625 -61.5859375 243.31640625 -64.5859375 241.31640625 C-66.77959602 241.43006935 -66.77959602 241.43006935 -69.140625 242.05078125 C-70.03104492 242.25251953 -70.92146484 242.45425781 -71.83886719 242.66210938 C-72.74540039 242.87802734 -73.65193359 243.09394531 -74.5859375 243.31640625 C-76.23406572 243.67719697 -77.88250016 244.03659192 -79.53125 244.39453125 C-81.25823024 244.78330524 -82.98477827 245.17400304 -84.7109375 245.56640625 C-85.64236572 245.77676514 -86.57379395 245.98712402 -87.53344727 246.20385742 C-92.74282505 247.39337312 -97.93034179 248.64559537 -103.10546875 249.9765625 C-104.17716309 250.25145508 -105.24885742 250.52634766 -106.35302734 250.80957031 C-108.42176177 251.34419782 -110.48861283 251.88618264 -112.55322266 252.43652344 C-120.30070621 254.44088685 -126.49186102 255.55380672 -133.7265625 251.5859375 C-138.22713298 248.513069 -140.87977682 244.47070823 -142.5859375 239.31640625 C-143.49932623 230.15651499 -142.09032457 220.98837994 -140.66943359 211.95068359 C-140.33659544 209.82061684 -140.02480624 207.68818919 -139.71484375 205.5546875 C-136.472302 183.97492178 -129.02217756 164.26323845 -111.0234375 150.87890625 C-108.29740425 148.99346538 -105.61951145 147.33368828 -102.671875 145.81640625 C-97.73895889 143.5462998 -97.73895889 143.5462998 -94.9296875 139.26171875 C-94.89610762 136.83557253 -95.17784461 134.71173406 -95.5859375 132.31640625 C-100.00741862 100.02321823 -95.84849754 68.07063315 -76.3359375 41.25390625 C-60.4004042 20.79612701 -28.7755638 -13.45046712 0 0 Z " fill="#F9BA53" transform="translate(241.5859375,182.68359375)"/>
<path d="M0 0 C1.74004514 -0.01653481 3.48002306 -0.04379242 5.21972656 -0.08203125 C7.73391807 -0.13698887 10.24651801 -0.15870302 12.76123047 -0.17333984 C13.53331848 -0.19600922 14.30540649 -0.21867859 15.10089111 -0.24203491 C19.07051701 -0.22661836 21.6248634 0.13597095 24.80371094 2.61987305 C27.12285937 5.08658761 28.22115559 6.36251138 29.05029297 9.55712891 C29.35966797 10.68344727 29.35966797 10.68344727 29.67529297 11.83251953 C29.86349609 12.60144531 30.05169922 13.37037109 30.24560547 14.16259766 C30.45701172 14.95085937 30.66841797 15.73912109 30.88623047 16.55126953 C31.40033599 18.47916523 31.8881893 20.41402923 32.37060547 22.35009766 C33.28583984 21.78419922 34.20107422 21.21830078 35.14404297 20.63525391 C36.34453652 19.89432429 37.54505885 19.1534413 38.74560547 18.41259766 C39.34888672 18.03941406 39.95216797 17.66623047 40.57373047 17.28173828 C47.81553858 12.81595661 47.81553858 12.81595661 53.37060547 13.35009766 C57.58612388 15.85970868 61.01472971 18.7379516 64.47998047 22.19384766 C65.39908203 23.11037109 66.31818359 24.02689453 67.26513672 24.97119141 C67.73387207 25.44411621 68.20260742 25.91704102 68.68554688 26.40429688 C70.12395369 27.85347094 71.57280121 29.29158938 73.02294922 30.72900391 C73.93689453 31.64552734 74.85083984 32.56205078 75.79248047 33.50634766 C76.62360352 34.33972656 77.45472656 35.17310547 78.31103516 36.03173828 C81.49929842 39.62061309 82.34178777 41.44234006 82.49560547 46.28759766 C81.61663696 53.11387256 77.15107376 58.77842799 73.37060547 64.35009766 C74.42248047 64.51445312 74.42248047 64.51445312 75.49560547 64.68212891 C89.91358823 67.09165592 89.91358823 67.09165592 94.06225586 70.9050293 C95.99823229 74.52301847 95.81859683 78.09051981 95.80419922 82.09619141 C95.80944107 82.944319 95.81468292 83.79244659 95.82008362 84.66627502 C95.82649802 86.4574372 95.82517433 88.24864154 95.81665039 90.03979492 C95.8081451 92.77485489 95.83690038 95.50782233 95.86865234 98.24267578 C95.87026466 99.9855137 95.86968623 101.7283553 95.86669922 103.47119141 C95.8779332 104.28591415 95.88916718 105.1006369 95.90074158 105.94004822 C95.85254934 109.88299103 95.65435949 111.89208493 93.53076172 115.31982422 C90.81270381 117.8744546 88.51195113 118.65721096 84.93310547 119.66259766 C83.82064453 119.98873047 82.70818359 120.31486328 81.56201172 120.65087891 C78.69652971 121.27868953 76.28661973 121.49726099 73.37060547 121.35009766 C74.02029297 122.42388672 74.66998047 123.49767578 75.33935547 124.60400391 C76.18390225 126.03973343 77.02760803 127.47595788 77.87060547 128.91259766 C78.51449219 129.96930664 78.51449219 129.96930664 79.17138672 131.04736328 C81.80968622 135.5911013 83.47999584 138.99005398 82.37060547 144.35009766 C80.37974495 147.36382544 77.92678958 149.81113464 75.37060547 152.35009766 C74.21890869 153.53708252 74.21890869 153.53708252 73.04394531 154.74804688 C70.5704277 157.28385975 68.06872947 159.78855225 65.55810547 162.28759766 C64.70023438 163.14933594 63.84236328 164.01107422 62.95849609 164.89892578 C62.13929688 165.71683594 61.32009766 166.53474609 60.47607422 167.37744141 C59.73510498 168.11728271 58.99413574 168.85712402 58.23071289 169.61938477 C55.15326151 172.4827596 52.73733996 172.68820505 48.55419922 172.63525391 C44.81740249 172.14726435 42.00741 170.34257436 38.87060547 168.35009766 C38.23896484 167.96853516 37.60732422 167.58697266 36.95654297 167.19384766 C35.41830281 166.2615809 33.89300592 165.30801255 32.37060547 164.35009766 C31.89880859 166.12126953 31.89880859 166.12126953 31.41748047 167.92822266 C30.98588807 169.48570827 30.55355751 171.04298945 30.12060547 172.60009766 C29.91564453 173.37740234 29.71068359 174.15470703 29.49951172 174.95556641 C28.2523938 179.37716631 27.23195874 182.53392271 23.37060547 185.35009766 C19.66400981 186.64387863 15.85254337 186.52905514 11.97216797 186.55322266 C11.25958832 186.55892273 10.54700867 186.5646228 9.81283569 186.57049561 C8.30834425 186.5799199 6.80383241 186.58646935 5.29931641 186.59033203 C3.01020949 186.60003575 0.72200188 186.63108101 -1.56689453 186.66259766 C-3.03303507 186.66912888 -4.49918199 186.67437889 -5.96533203 186.67822266 C-6.64365082 186.69056946 -7.3219696 186.70291626 -8.02084351 186.71563721 C-12.61403206 186.69434234 -15.72438198 185.75079204 -19.62939453 183.35009766 C-21.02001953 181.36962891 -21.02001953 181.36962891 -21.87939453 179.16259766 C-22.18876953 178.37111328 -22.49814453 177.57962891 -22.81689453 176.76416016 C-24.44856465 171.9162172 -25.62939453 167.51962666 -25.62939453 162.35009766 C-27.00611328 163.30722656 -27.00611328 163.30722656 -28.41064453 164.28369141 C-29.64969773 165.11911364 -30.8893114 165.95370502 -32.12939453 166.78759766 C-32.73009766 167.20847656 -33.33080078 167.62935547 -33.94970703 168.06298828 C-38.18389689 170.87827409 -42.41339866 173.29119649 -47.62939453 172.35009766 C-50.75938663 170.47585089 -53.11137061 167.96735967 -55.62939453 165.35009766 C-57.33606815 163.68697017 -59.0431191 162.02422982 -60.75048828 160.36181641 C-62.52523749 158.58969063 -64.29733856 156.81490917 -66.06689453 155.03759766 C-66.97632813 154.13203125 -67.88576172 153.22646484 -68.82275391 152.29345703 C-69.68578125 151.42914063 -70.54880859 150.56482422 -71.43798828 149.67431641 C-72.21972412 148.89145264 -73.00145996 148.10858887 -73.80688477 147.30200195 C-75.96272187 144.99310475 -76.55363071 143.87570917 -77.00439453 140.74853516 C-76.47764887 135.97490264 -74.26173115 132.90937374 -71.62939453 128.97509766 C-71.15244141 128.23904297 -70.67548828 127.50298828 -70.18408203 126.74462891 C-69.01129233 124.93853276 -67.82195647 123.14319971 -66.62939453 121.35009766 C-67.84111328 121.21345703 -69.05283203 121.07681641 -70.30126953 120.93603516 C-73.59174515 120.52291377 -76.69603411 119.93010578 -79.87939453 118.97509766 C-80.68892578 118.74048828 -81.49845703 118.50587891 -82.33251953 118.26416016 C-84.84618545 117.26382372 -86.61796422 116.15682489 -88.62939453 114.35009766 C-90.58267514 108.49025582 -89.93646632 101.79389238 -89.97949219 95.64526367 C-89.99604376 93.91205409 -90.02332362 92.17891254 -90.06152344 90.44604492 C-90.11646753 87.93844445 -90.13819059 85.43243881 -90.15283203 82.92431641 C-90.1755014 82.15536545 -90.19817078 81.38641449 -90.2215271 80.59416199 C-90.20603264 76.6220237 -89.83256644 74.08463822 -87.34594727 70.90551758 C-83.78216584 67.55312249 -83.78216584 67.55312249 -80.64111328 66.88916016 C-79.5824707 66.64746094 -79.5824707 66.64746094 -78.50244141 66.40087891 C-77.78121094 66.26037109 -77.05998047 66.11986328 -76.31689453 65.97509766 C-75.20604492 65.72953125 -75.20604492 65.72953125 -74.07275391 65.47900391 C-72.26272523 65.08196536 -70.44655462 64.71310261 -68.62939453 64.35009766 C-68.62939453 59.90037419 -71.34028728 56.91681988 -73.78564453 53.35205078 C-75.47665824 50.75815654 -76.60599312 48.44942069 -77.31689453 45.43212891 C-76.22845296 40.55269484 -73.08161917 37.83488313 -69.62939453 34.35009766 C-68.86159668 33.55748535 -68.09379883 32.76487305 -67.30273438 31.94824219 C-64.82794982 29.41508774 -62.32680011 26.91092796 -59.81689453 24.41259766 C-58.95902344 23.55085938 -58.10115234 22.68912109 -57.21728516 21.80126953 C-56.39808594 20.98335938 -55.57888672 20.16544922 -54.73486328 19.32275391 C-53.99389404 18.5829126 -53.2529248 17.84307129 -52.48950195 17.08081055 C-49.43245907 14.23642454 -47.00525159 13.98102035 -42.84423828 14.03369141 C-38.88961772 14.5986372 -35.90987025 16.67833142 -32.62939453 18.85009766 C-31.95005859 19.27935547 -31.27072266 19.70861328 -30.57080078 20.15087891 C-28.91343816 21.20132001 -27.26989808 22.2735172 -25.62939453 23.35009766 C-25.47083984 22.26470703 -25.31228516 21.17931641 -25.14892578 20.06103516 C-24.91427015 18.61555647 -24.6785355 17.17025265 -24.44189453 15.72509766 C-24.34070313 15.01224609 -24.23951172 14.29939453 -24.13525391 13.56494141 C-23.21445995 8.13972294 -21.50677954 5.2696937 -17.62939453 1.35009766 C-12.78415979 -1.07251972 -5.38745025 0.03751848 0 0 Z " fill="#118BE0" transform="translate(401.62939453125,311.64990234375)"/>
<path d="M0 0 C16.1337223 8.79783886 31.90095548 20.94487265 43.4140625 35.31640625 C44.02636719 36.06792969 44.63867188 36.81945312 45.26953125 37.59375 C55.55164185 50.91329048 62.65894344 65.95130223 66.4140625 82.31640625 C66.65769531 83.37601562 66.90132812 84.435625 67.15234375 85.52734375 C69.51716045 98.04317636 68.87441651 111.28978606 67.9140625 123.94140625 C67.84058594 125.03066406 67.76710938 126.11992187 67.69140625 127.2421875 C67.4140625 130.31640625 67.4140625 130.31640625 66.85546875 133.296875 C66.4339336 136.44752434 66.31320418 138.32039943 67.4140625 141.31640625 C70.6254997 144.05677227 73.96346611 146.05935019 77.6328125 148.1171875 C82.81092873 151.02137845 87.61288159 154.7357205 91.4140625 159.31640625 C91.4140625 163.31640625 91.4140625 163.31640625 89.8828125 165.24609375 C88.57291383 166.54039839 87.26041883 167.8320808 85.9453125 169.12109375 C83.82602364 172.15946197 83.84870584 173.65925536 84.4140625 177.31640625 C85.67962767 180.09906406 87.25847199 182.62598673 88.9140625 185.19140625 C89.55794922 186.22394531 89.55794922 186.22394531 90.21484375 187.27734375 C91.2693382 188.96453486 92.34010175 190.64153889 93.4140625 192.31640625 C90.23621801 195.49425074 85.66835295 195.71561821 81.35546875 196.55273438 C80.65550781 196.70806641 79.95554687 196.86339844 79.234375 197.0234375 C78.27942139 197.21643433 78.27942139 197.21643433 77.30517578 197.41333008 C74.31620747 198.84067242 73.13007621 200.49149006 71.4140625 203.31640625 C71.04707751 206.26279781 70.89837851 208.82078008 70.953125 211.7578125 C70.95404144 212.56250473 70.95495789 213.36719696 70.9559021 214.1962738 C70.96192556 215.89157029 70.9776339 217.58685675 71.00244141 219.28198242 C71.03899239 221.87393469 71.04346021 224.46445726 71.04296875 227.05664062 C71.05279931 228.70704358 71.06445605 230.35743687 71.078125 232.0078125 C71.08035065 232.78081192 71.08257629 233.55381134 71.08486938 234.35023499 C71.17249663 239.64585777 71.17249663 239.64585777 73.4140625 244.31640625 C75.20028922 245.34052768 75.20028922 245.34052768 77.3515625 245.87890625 C78.14304687 246.11351562 78.93453125 246.348125 79.75 246.58984375 C80.62914062 246.82960938 81.50828125 247.069375 82.4140625 247.31640625 C83.41695312 247.59742188 84.41984375 247.8784375 85.453125 248.16796875 C88.10272212 248.9005447 90.75585352 249.61583155 93.4140625 250.31640625 C93.0840625 251.30640625 92.7540625 252.29640625 92.4140625 253.31640625 C85.43336373 252.61325334 78.73675469 251.11434496 71.9140625 249.50390625 C70.76510498 249.23618408 69.61614746 248.96846191 68.43237305 248.69262695 C60.82545509 246.91153404 53.24238223 245.05324393 45.68359375 243.078125 C39.19453542 241.17305235 39.19453542 241.17305235 33.1015625 242.75390625 C32.5446875 243.26953125 31.9878125 243.78515625 31.4140625 244.31640625 C30.7540625 244.31640625 30.0940625 244.31640625 29.4140625 244.31640625 C29.34058594 245.22519531 29.34058594 245.22519531 29.265625 246.15234375 C27.50979937 265.82969996 27.50979937 265.82969996 19.8515625 272.56640625 C16.17554456 275.63370724 14.09899436 276.4442424 9.28100586 276.52514648 C8.20906479 276.5444371 7.13712372 276.56372772 6.03269958 276.58360291 C1.10817776 276.64137362 -3.81619609 276.69066156 -8.7409668 276.72143555 C-11.33355051 276.74297967 -13.9260622 276.77703907 -16.51831055 276.82397461 C-20.26123472 276.89113263 -24.00265114 276.91846706 -27.74609375 276.9375 C-28.89642593 276.96533066 -30.04675812 276.99316132 -31.23194885 277.02183533 C-38.82748619 277.00257231 -43.97191368 275.61537598 -49.5859375 270.31640625 C-54.90820996 262.94556405 -55.5859375 254.1429569 -55.5859375 245.31640625 C-41.7259375 245.64640625 -27.8659375 245.97640625 -13.5859375 246.31640625 C-13.5859375 217.60640625 -13.5859375 188.89640625 -13.5859375 159.31640625 C-9.2959375 158.32640625 -5.0059375 157.33640625 -0.5859375 156.31640625 C10.41193169 151.16846748 17.27404334 145.36838883 22.4140625 134.31640625 C22.73503906 133.65253906 23.05601562 132.98867188 23.38671875 132.3046875 C26.98303123 123.52299423 26.75677392 112.23195772 23.7890625 103.31640625 C19.22112312 92.62582533 11.64640395 85.68985269 1.4296875 80.4921875 C-3.11212073 78.72135294 -7.88288684 77.59905643 -12.5859375 76.31640625 C-12.5859375 66.41640625 -12.5859375 56.51640625 -12.5859375 46.31640625 C-34.3659375 46.31640625 -56.1459375 46.31640625 -78.5859375 46.31640625 C-76.69652071 41.59286428 -74.544525 38.50077882 -71.2734375 34.75390625 C-70.74000732 34.14111816 -70.20657715 33.52833008 -69.65698242 32.89697266 C-53.64398742 14.81077279 -26.03562645 -12.16974722 0 0 Z " fill="#F89944" transform="translate(241.5859375,182.68359375)"/>
<path d="M0 0 C10.25882452 3.87268849 17.51746692 11.08074038 25.1159668 18.7277832 C26.20052429 19.80826746 27.28571715 20.88811425 28.37149048 21.96737671 C31.29769955 24.87999587 34.2144433 27.80192001 37.1290853 30.72610879 C40.19269597 33.79735943 43.26367062 36.86123312 46.33345032 39.92631531 C51.48559929 45.07301931 56.63142045 50.22598642 61.77368164 55.38256836 C67.70353048 61.32874122 73.64410875 67.26403009 79.59037465 73.19378215 C84.71208252 78.30183924 89.82787496 83.41576546 94.93884403 88.53456753 C97.9841321 91.58451241 101.03136248 94.63244253 104.08395958 97.67507362 C106.95462793 100.53702216 109.81775601 103.40631331 112.67543411 106.28123093 C113.72009422 107.32982922 114.76726241 108.3759363 115.81722069 109.41922951 C127.86109259 121.39372528 127.86109259 121.39372528 131 128 C131 129.32 131 130.64 131 132 C116.99556429 132.14064973 102.99123934 132.24580421 88.98624039 132.31087303 C82.48227599 132.3421117 75.97878795 132.38444948 69.47509766 132.45263672 C63.19213973 132.51809333 56.9096384 132.55376212 50.62636566 132.56926346 C48.23587614 132.5803025 45.84541005 132.60185897 43.45511627 132.63438034 C18.08421919 132.96566527 18.08421919 132.96566527 8.11529541 124.37606812 C1.12256034 117.06613 -0.59554148 108.6785983 -0.45410156 98.88061523 C-0.45468567 97.80640823 -0.45526978 96.73220123 -0.45587158 95.6254425 C-0.4531025 92.10282176 -0.42206504 88.58106523 -0.390625 85.05859375 C-0.38315846 82.6052344 -0.37746748 80.15186905 -0.37347412 77.69850159 C-0.35825051 71.26223085 -0.31899639 64.826325 -0.2746582 58.39019775 C-0.23363512 51.81421849 -0.21544806 45.2381799 -0.1953125 38.66210938 C-0.1524994 25.77458452 -0.08506357 12.88731173 0 0 Z " fill="#C4D3E4" transform="translate(302,20)"/>
<path d="M0 0 C6.93 0 13.86 0 21 0 C25.5 4.5 25.5 4.5 26.484375 8.109375 C26.80341797 9.24052734 26.80341797 9.24052734 27.12890625 10.39453125 C27.33386719 11.17183594 27.53882813 11.94914062 27.75 12.75 C27.97042969 13.54277344 28.19085938 14.33554687 28.41796875 15.15234375 C28.95721088 17.09830446 29.48023391 19.04874697 30 21 C31.37285156 20.15115234 31.37285156 20.15115234 32.7734375 19.28515625 C33.97393106 18.54422663 35.17445339 17.80334364 36.375 17.0625 C36.97828125 16.68931641 37.5815625 16.31613281 38.203125 15.93164062 C45.44493312 11.46585895 45.44493312 11.46585895 51 12 C55.21551841 14.50961103 58.64412424 17.38785395 62.109375 20.84375 C63.02847656 21.76027344 63.94757813 22.67679687 64.89453125 23.62109375 C65.3632666 24.09401855 65.83200195 24.56694336 66.31494141 25.05419922 C67.75334822 26.50337328 69.20219574 27.94149173 70.65234375 29.37890625 C71.56628906 30.29542969 72.48023438 31.21195312 73.421875 32.15625 C74.25299805 32.98962891 75.08412109 33.82300781 75.94042969 34.68164062 C79.12869295 38.27051544 79.9711823 40.0922424 80.125 44.9375 C79.24603149 51.7637749 74.78046829 57.42833033 71 63 C71.70125 63.10957031 72.4025 63.21914063 73.125 63.33203125 C87.54298276 65.74155826 87.54298276 65.74155826 91.69165039 69.55493164 C93.62762682 73.17292081 93.44799136 76.74042216 93.43359375 80.74609375 C93.4388356 81.59422134 93.44407745 82.44234894 93.44947815 83.31617737 C93.45589255 85.10733955 93.45456886 86.89854388 93.44604492 88.68969727 C93.43753963 91.42475723 93.46629491 94.15772468 93.49804688 96.89257812 C93.4996592 98.63541604 93.49908077 100.37825765 93.49609375 102.12109375 C93.50732773 102.9358165 93.51856171 103.75053925 93.53013611 104.58995056 C93.48194387 108.53289337 93.28375402 110.54198727 91.16015625 113.96972656 C88.44209834 116.52435694 86.14134566 117.3071133 82.5625 118.3125 C81.45003906 118.63863281 80.33757812 118.96476562 79.19140625 119.30078125 C76.32592425 119.92859187 73.91601426 120.14716334 71 120 C71.6496875 121.07378906 72.299375 122.14757812 72.96875 123.25390625 C73.81329678 124.68963577 74.65700256 126.12586023 75.5 127.5625 C76.14388672 128.61920898 76.14388672 128.61920898 76.80078125 129.69726562 C79.43908075 134.24100365 81.10939037 137.63995633 80 143 C78.00913948 146.01372778 75.55618411 148.46103698 73 151 C72.23220215 151.79132324 71.4644043 152.58264648 70.67333984 153.39794922 C68.19982224 155.93376209 65.698124 158.43845459 63.1875 160.9375 C62.32962891 161.79923828 61.47175781 162.66097656 60.58789062 163.54882812 C59.76869141 164.36673828 58.94949219 165.18464844 58.10546875 166.02734375 C56.99401489 167.13710571 56.99401489 167.13710571 55.86010742 168.26928711 C52.78265604 171.13266194 50.36673449 171.3381074 46.18359375 171.28515625 C42.44679702 170.7971667 39.63680454 168.9924767 36.5 167 C35.86835938 166.6184375 35.23671875 166.236875 34.5859375 165.84375 C33.04769734 164.91148324 31.52240046 163.95791489 30 163 C29.68546875 164.18078125 29.3709375 165.3615625 29.046875 166.578125 C28.6152826 168.13561061 28.18295204 169.6928918 27.75 171.25 C27.54503906 172.02730469 27.34007812 172.80460938 27.12890625 173.60546875 C25.88178833 178.02706865 24.86135327 181.18382506 21 184 C14.20130732 185.69967317 7.00793201 185 0 185 C0 170.81 0 156.62 0 142 C4.95 141.01 4.95 141.01 10 140 C17.96624052 137.91608453 24.44798323 134.97953275 31 130 C32.03125 129.278125 33.0625 128.55625 34.125 127.8125 C43.15926184 119.95771123 48.33499454 106.63416924 49.23828125 94.90625 C49.56711077 79.81470575 45.01051582 67.31395809 34.6875 56.1875 C24.54183048 46.7227479 13.47930944 44.24655157 0 42 C0 28.14 0 14.28 0 0 Z " fill="#0C6BC3" transform="translate(404,313)"/>
<path d="M0 0 C10.55474536 8.00322283 17.23390346 17.32485789 21 30 C21.19335938 30.63164062 21.38671875 31.26328125 21.5859375 31.9140625 C24.33720415 45.77421714 20.58491302 59.40796312 13 71 C5.48691123 81.45939809 -5.47949852 88.20458326 -18 91 C-33.75003199 91.96947725 -47.24553817 90.13766495 -60 80 C-66.3233001 74.13962062 -70.7190531 67.95147132 -74 60 C-74.47759766 58.95972656 -74.47759766 58.95972656 -74.96484375 57.8984375 C-79.75989384 46.09863683 -77.50087836 31.58466212 -72.81640625 20.09765625 C-66.3628697 7.06260933 -55.3097287 -1.64142198 -41.75 -6.375 C-27.31037362 -10.43508318 -12.62960076 -7.98812288 0 0 Z " fill="#E7ECF1" transform="translate(432,363)"/>
<path d="M0 0 C9.98466147 6.5622983 16.84818933 14.39748349 20.5859375 25.78515625 C22.2410006 34.63818245 21.93045091 44.85382351 18 53 C17.6596875 53.74507813 17.319375 54.49015625 16.96875 55.2578125 C11.99157441 65.17853411 4.21110325 71.77087822 -6 76 C-18.2052575 79.45871057 -29.22568327 78.47318108 -40.58984375 72.6796875 C-50.00980309 66.78617448 -57.49218005 57.53789759 -60.3125 46.6875 C-62.59482011 33.92423413 -60.63463194 22.86760434 -53.25 12.125 C-41.35146057 -3.18886094 -17.53508005 -10.90714153 0 0 Z " fill="#4CB5FD" transform="translate(247,264)"/>
<path d="M0 0 C1.72783292 6.45057624 2.88259171 12.90904595 3.9375 19.5 C4.29071367 21.64859438 4.64488142 23.79703214 5 25.9453125 C5.17144531 26.98461914 5.34289062 28.02392578 5.51953125 29.09472656 C11.07555673 64.06583918 11.07555673 64.06583918 27 95 C27.99 96.485 27.99 96.485 29 98 C22.71947528 100.23592377 16.45014808 101.90811522 9.9375 103.3125 C3.75907524 104.67135988 -2.39653678 106.0793533 -8.5234375 107.65625 C-9.59456787 107.93170654 -10.66569824 108.20716309 -11.76928711 108.4909668 C-13.83702176 109.02714057 -15.90304442 109.56997333 -17.96704102 110.12036133 C-25.7148293 112.1239748 -31.90568725 113.23753005 -39.140625 109.26953125 C-43.64119548 106.19666275 -46.29383932 102.15430198 -48 97 C-48.91338873 87.84010874 -47.50438707 78.67197369 -46.08349609 69.63427734 C-45.75065794 67.50421059 -45.43886874 65.37178294 -45.12890625 63.23828125 C-41.87735321 41.5985436 -34.40206826 21.86618099 -16.3125 8.5 C-14.55504415 7.31327731 -12.78494624 6.14495795 -11 5 C-10.22011719 4.4740625 -9.44023437 3.948125 -8.63671875 3.40625 C-3.46111111 0 -3.46111111 0 0 0 Z " fill="#E82A3B" transform="translate(147,325)"/>
<path d="M0 0 C16.17978795 8.8229588 31.80505684 20.96756227 43.4140625 35.31640625 C43.99542969 36.033125 44.57679688 36.74984375 45.17578125 37.48828125 C49.4140625 42.90221627 49.4140625 42.90221627 49.4140625 46.31640625 C7.1740625 46.31640625 -35.0659375 46.31640625 -78.5859375 46.31640625 C-76.69652071 41.59286428 -74.544525 38.50077882 -71.2734375 34.75390625 C-70.74000732 34.14111816 -70.20657715 33.52833008 -69.65698242 32.89697266 C-53.64398742 14.81077279 -26.03562645 -12.16974722 0 0 Z " fill="#E92C3B" transform="translate(241.5859375,182.68359375)"/>
<path d="M0 0 C0 32.34 0 64.68 0 98 C-13.45734852 98 -24.57604183 93.88045967 -34.5078125 84.67578125 C-39.61822877 79.30394104 -43.17845486 73.83809764 -46 67 C-46.47759766 65.95972656 -46.47759766 65.95972656 -46.96484375 64.8984375 C-51.75989384 53.09863683 -49.50087836 38.58466212 -44.81640625 27.09765625 C-38.6977408 14.73899204 -28.03181339 5.54359923 -15 1.125 C-9.76371787 -0.50198766 -5.97456384 0 0 0 Z " fill="#FDFEFE" transform="translate(404,356)"/>
<path d="M0 0 C9.67137983 3.76708767 19.23415199 10.0600352 26 18 C26 22 26 22 24.46875 23.9296875 C23.15885133 25.22399214 21.84635633 26.51567455 20.53125 27.8046875 C18.41196114 30.84305572 18.43464334 32.34284911 19 36 C20.26556517 38.78265781 21.84440949 41.30958048 23.5 43.875 C23.92925781 44.56335938 24.35851562 45.25171875 24.80078125 45.9609375 C25.8552757 47.64812861 26.92603925 49.32513264 28 51 C24.82215551 54.17784449 20.25429045 54.39921196 15.94140625 55.23632812 C15.24144531 55.39166016 14.54148437 55.54699219 13.8203125 55.70703125 C13.18367676 55.8356958 12.54704102 55.96436035 11.89111328 56.09692383 C8.90214497 57.52426617 7.71601371 59.17508381 6 62 C5.63301501 64.94639156 5.48431601 67.50437383 5.5390625 70.44140625 C5.53997894 71.24609848 5.54089539 72.05079071 5.5418396 72.87986755 C5.54786306 74.57516404 5.5635714 76.2704505 5.58837891 77.96557617 C5.62492989 80.55752844 5.62939771 83.14805101 5.62890625 85.74023438 C5.63873681 87.39063733 5.65039355 89.04103062 5.6640625 90.69140625 C5.66628815 91.46440567 5.66851379 92.23740509 5.67080688 93.03382874 C5.75843413 98.32945152 5.75843413 98.32945152 8 103 C9.78622672 104.02412143 9.78622672 104.02412143 11.9375 104.5625 C12.72898437 104.79710937 13.52046875 105.03171875 14.3359375 105.2734375 C15.21507812 105.51320313 16.09421875 105.75296875 17 106 C18.00289063 106.28101563 19.00578125 106.56203125 20.0390625 106.8515625 C22.68865962 107.58413845 25.34179102 108.2994253 28 109 C27.505 110.485 27.505 110.485 27 112 C20.01940567 111.29685761 13.32246554 109.79861451 6.5 108.1875 C5.35249268 107.91905273 4.20498535 107.65060547 3.02270508 107.37402344 C-0.31973428 106.58900498 -3.66030178 105.79659211 -7 105 C-8.3295874 104.68313232 -8.3295874 104.68313232 -9.68603516 104.35986328 C-22.85354394 101.20148589 -22.85354394 101.20148589 -28 99 C-27.63648438 98.59652344 -27.27296875 98.19304687 -26.8984375 97.77734375 C-6.61820932 73.28506817 -4.16596933 30.12995801 0 0 Z " fill="#E72A3C" transform="translate(307,324)"/>
<path d="M0 0 C3 1 3 1 4.5703125 3.58203125 C5.08335937 4.64808594 5.59640625 5.71414063 6.125 6.8125 C6.90230469 8.39998047 6.90230469 8.39998047 7.6953125 10.01953125 C11.250393 18.14086785 11.46973742 29.4703706 8.8125 37.9375 C8.24922463 39.30917984 7.64436829 40.66449476 7 42 C6.6596875 42.74507813 6.319375 43.49015625 5.96875 44.2578125 C0.99157441 54.17853411 -6.78889675 60.77087822 -17 65 C-29.13072445 68.43758949 -40.36283765 67.55742647 -51.61328125 61.62109375 C-53.44926063 60.47646007 -55.23243824 59.24769065 -57 58 C-51.50280742 51.30470134 -45.39046848 45.26303509 -39.2578125 39.16015625 C-38.12273594 38.02694801 -36.98788237 36.89351638 -35.85324097 35.75987244 C-32.88649256 32.79691665 -29.91675198 29.83697807 -26.9463501 26.87768555 C-23.9077114 23.84933144 -20.87195091 20.81809501 -17.8359375 17.78710938 C-11.8934174 11.85526911 -5.947729 5.92661739 0 0 Z " fill="#4CB5FD" transform="translate(258,275)"/>
<path d="M0 0 C0.51059967 0.16233124 1.02119934 0.32466248 1.54727173 0.49191284 C4.81245303 1.16830114 7.90820604 1.12736168 11.24365234 1.12939453 C11.96611649 1.13114685 12.68858063 1.13289917 13.43293762 1.13470459 C15.81729548 1.13909966 18.20157891 1.13619274 20.5859375 1.1328125 C22.24736546 1.13348636 23.90879332 1.13445707 25.57022095 1.13571167 C29.05203185 1.13718559 32.53381708 1.13504443 36.015625 1.13037109 C40.46980529 1.12468287 44.9239252 1.12794899 49.37810326 1.13394356 C52.8096868 1.13756499 56.24125614 1.13640316 59.67284012 1.13381577 C61.31462232 1.13315041 62.95640582 1.13396119 64.59818649 1.13629532 C66.89801168 1.13884683 69.19774054 1.13494576 71.49755859 1.12939453 C72.80453705 1.12859894 74.1115155 1.12780334 75.45809937 1.12698364 C78.73353013 1.00955343 81.78680004 0.62447787 85 0 C84.7434505 2.71037002 84.47028951 5.41734615 84.1875 8.125 C84.08211914 9.26582031 84.08211914 9.26582031 83.97460938 10.4296875 C83.23116178 17.32888117 81.42672943 22.26721283 75.9375 26.8125 C75.24527344 27.39644531 74.55304688 27.98039062 73.83984375 28.58203125 C70.72100427 30.98572282 68.75597723 31.14343524 64.86694336 31.20874023 C63.25903175 31.23767616 63.25903175 31.23767616 61.61863708 31.26719666 C56.69411526 31.32496737 51.76974141 31.37425531 46.8449707 31.4050293 C44.25238699 31.42657342 41.6598753 31.46063282 39.06762695 31.50756836 C35.32470278 31.57472638 31.58328636 31.60206081 27.83984375 31.62109375 C26.68951157 31.64892441 25.53917938 31.67675507 24.35398865 31.70542908 C16.75845131 31.68616606 11.61402382 30.29896973 6 25 C0.82295036 17.83027761 -0.37613999 8.65121978 0 0 Z " fill="#454545" transform="translate(186,428)"/>
<path d="M0 0 C1.08325813 -0.00744736 1.08325813 -0.00744736 2.18840027 -0.01504517 C4.58361762 -0.02967947 6.97876868 -0.03647189 9.37402344 -0.04199219 C11.03830975 -0.04774387 12.70259605 -0.05350161 14.36688232 -0.05926514 C17.86063954 -0.06977961 21.35437372 -0.07561893 24.84814453 -0.07910156 C29.31818933 -0.08457844 33.7879283 -0.10858716 38.25787735 -0.13707352 C41.69804766 -0.15573007 45.13814489 -0.16090716 48.57836151 -0.16243744 C50.22574276 -0.16545915 51.87312288 -0.17347145 53.52045441 -0.18662262 C55.83027622 -0.20374188 58.13935864 -0.20178855 60.44921875 -0.1953125 C61.76222961 -0.19895813 63.07524048 -0.20260376 64.42803955 -0.20635986 C69.22762815 0.28974017 72.6438825 1.64301475 75.85839844 5.28613281 C77.44256329 9.3345541 77.79810036 12.87640421 76.98339844 17.16113281 C74.93862507 20.99102579 72.0425889 23.63031311 67.98339844 25.16113281 C64.73342896 25.42855835 64.73342896 25.42855835 60.83154297 25.45166016 C60.1188324 25.45837738 59.40612183 25.4650946 58.67181396 25.47201538 C56.31987502 25.49098544 53.96822159 25.49491905 51.61621094 25.49707031 C49.97720218 25.50349902 48.33819458 25.51022744 46.69918823 25.51724243 C43.26443827 25.52921276 39.82978887 25.53292352 36.39501953 25.53173828 C32.0011275 25.53153512 27.6078825 25.55883457 23.21414375 25.5932827 C19.82885802 25.6155581 16.44372783 25.61957563 13.05837631 25.61851883 C11.4389002 25.62087393 9.81941975 25.62969239 8.20001602 25.64518356 C5.93090206 25.66485719 3.66318103 25.65900147 1.39404297 25.64697266 C-0.53977737 25.65124771 -0.53977737 25.65124771 -2.51266479 25.65560913 C-6.65028699 25.07170699 -8.78915678 23.77008329 -12.01660156 21.16113281 C-14.9149209 16.8136538 -15.83471184 13.34249787 -15.01660156 8.16113281 C-10.77377294 1.63470225 -7.74249403 0.04036084 0 0 Z " fill="#C4D3E4" transform="translate(72.0166015625,109.8388671875)"/>
<path d="M0 0 C11.61894863 1.16189486 11.61894863 1.16189486 17.75 4.875 C18.42756348 5.27138672 19.10512695 5.66777344 19.80322266 6.07617188 C27.0302966 10.42151114 33.58528916 15.54558725 40 21 C40.93972656 21.79792969 41.87945312 22.59585938 42.84765625 23.41796875 C48.004215 27.93676307 52.68765559 32.66990034 57 38 C57.58136719 38.71671875 58.16273438 39.4334375 58.76171875 40.171875 C63 45.58581002 63 45.58581002 63 49 C42.21 49 21.42 49 0 49 C0 32.83 0 16.66 0 0 Z " fill="#D42132" transform="translate(228,180)"/>
<path d="M0 0 C2.69105198 2.17574416 4.45532928 3.91065856 6 7 C6.10902988 9.87207971 6.15733344 12.72027963 6.16113281 15.59301758 C6.16609772 16.48260666 6.17106262 17.37219574 6.17617798 18.28874207 C6.19081936 21.24067958 6.19760517 24.19256334 6.203125 27.14453125 C6.20887518 29.1923574 6.21463293 31.24018353 6.22039795 33.28800964 C6.23091381 37.5862961 6.23675253 41.88456381 6.24023438 46.18286133 C6.24571787 51.69102787 6.26974041 57.19894705 6.29820633 62.70703602 C6.31682971 66.93894677 6.32203817 71.17079793 6.32357025 75.4027462 C6.32659839 77.43332966 6.33463232 79.46391203 6.34775543 81.49445534 C6.36480822 84.33609446 6.36293741 87.17712931 6.35644531 90.01879883 C6.3656601 90.8579483 6.37487488 91.69709778 6.3843689 92.56167603 C6.35110968 97.20843376 5.98553845 100.20811878 3 104 C-0.20937409 106.32402951 -3.11506021 106.47570691 -7 106 C-9.69990662 104.20006226 -11.5418865 102.916227 -13 100 C-13.10388575 97.06149023 -13.14680256 94.14649056 -13.14526367 91.20751953 C-13.14862228 90.29681702 -13.1519809 89.3861145 -13.15544128 88.44781494 C-13.16496889 85.42613372 -13.16689535 82.40450782 -13.16796875 79.3828125 C-13.17118023 77.28775001 -13.17454422 75.19268774 -13.17805481 73.09762573 C-13.18405072 68.70098348 -13.18589425 64.3043609 -13.18530273 59.90771484 C-13.18520112 54.26946977 -13.19885032 48.63135066 -13.21607494 42.99313545 C-13.22718533 38.66433125 -13.22922223 34.33555758 -13.22869301 30.00674057 C-13.22987469 27.92789145 -13.23430698 25.84904158 -13.24202538 23.77020645 C-13.25180516 20.86380407 -13.24895506 17.95767618 -13.24291992 15.05126953 C-13.24853943 14.1898233 -13.25415894 13.32837708 -13.25994873 12.44082642 C-13.25575424 11.6472876 -13.25155975 10.85374878 -13.24723816 10.03616333 C-13.24778293 9.34925982 -13.24832769 8.6623563 -13.24888897 7.95463753 C-12.94611388 5.57680794 -12.27029457 4.02972231 -11 2 C-7.33091443 -0.44605705 -4.26381231 -0.83946402 0 0 Z " fill="#FEFEFE" transform="translate(35,133)"/>
<path d="M0 0 C0.96928185 -0.00788544 0.96928185 -0.00788544 1.95814514 -0.01593018 C4.08237273 -0.02907431 6.20584364 -0.02041272 8.33007812 -0.01025391 C9.81311181 -0.01227627 11.29614452 -0.01518906 12.7791748 -0.01895142 C15.88266497 -0.02336717 18.98589555 -0.01696809 22.08935547 -0.00292969 C26.06064263 0.01416206 30.0313215 0.00431682 34.00258636 -0.01364708 C37.06358393 -0.02450533 40.1244381 -0.02102928 43.18544006 -0.0132637 C44.64941989 -0.01126732 46.11341288 -0.01370118 47.57737732 -0.02070236 C49.62615274 -0.02835088 51.67395315 -0.0166669 53.72265625 0 C54.88671997 0.00238678 56.05078369 0.00477356 57.25012207 0.00723267 C61.73602452 0.55650799 64.357611 2.14218992 67.17382812 5.63818359 C68.92394014 9.69107458 69.16474691 13.06400781 67.70507812 17.28662109 C65.7654191 21.24954514 63.92255534 23.01877138 59.72840881 24.74691772 C54.41944535 26.18516911 48.82204478 25.83412683 43.36132812 25.82177734 C41.99804425 25.82634576 40.63476267 25.83165329 39.27148438 25.83766174 C36.42373253 25.8465633 33.57626158 25.84420319 30.72851562 25.83422852 C27.09362815 25.82273215 23.45971124 25.84297406 19.82495117 25.87214565 C17.01263354 25.89055974 14.20054643 25.89020514 11.38818359 25.88450813 C9.40133523 25.8842819 7.41450835 25.90112564 5.42773438 25.9183197 C-1.45619379 25.86530731 -6.1015074 25.64197433 -11.63867188 21.38818359 C-14.65735914 17.88261129 -15.11810859 14.79930943 -14.92382812 10.31396484 C-14.49170119 7.39562813 -13.51220603 5.6493455 -11.63867188 3.38818359 C-7.68555258 0.48864775 -4.86105779 0.00996704 0 0 Z " fill="#C4D3E4" transform="translate(71.638671875,56.61181640625)"/>
<path d="M0 0 C0.80448578 -0.00953201 1.60897156 -0.01906403 2.43783569 -0.02888489 C3.30349152 -0.02797348 4.16914734 -0.02706207 5.06103516 -0.02612305 C5.95496979 -0.03040817 6.84890442 -0.0346933 7.76992798 -0.03910828 C9.66122592 -0.04485136 11.55254596 -0.045352 13.44384766 -0.04101562 C16.33225412 -0.03786128 19.21963077 -0.06129524 22.10791016 -0.08666992 C23.94645053 -0.08894353 25.78499366 -0.08964612 27.62353516 -0.08862305 C28.48514252 -0.09783279 29.34674988 -0.10704254 30.23446655 -0.11653137 C34.96926241 -0.08015691 38.14349881 0.18075488 41.97509766 3.2746582 C45.06198971 7.59630708 45.40027787 11.06180603 44.61962891 16.1574707 C43.40677493 20.14151226 40.66165214 22.14280605 37.32421875 24.38256836 C33.84052396 25.70551793 30.37921457 25.59996401 26.70166016 25.6105957 C25.90029633 25.6172525 25.0989325 25.6239093 24.27328491 25.63076782 C22.58048797 25.64087696 20.88765132 25.64558538 19.19482422 25.64526367 C16.61569954 25.64963178 14.03829418 25.68595311 11.45947266 25.72387695 C9.81104098 25.72974668 8.16260121 25.73371503 6.51416016 25.7355957 C5.74834625 25.74996674 4.98253235 25.76433777 4.19351196 25.77914429 C-0.98466338 25.73534103 -3.91655959 24.68883002 -8.02490234 21.2746582 C-10.93527434 16.9091002 -11.67552725 13.47965742 -11.02490234 8.2746582 C-8.30581948 3.30529986 -5.9056678 0.03850699 0 0 Z " fill="#C4D3E4" transform="translate(164.02490234375,56.725341796875)"/>
<path d="M0 0 C3.77083059 1.42532482 6.32818012 2.89358859 9.3125 5.625 C10.00988281 6.25664062 10.70726562 6.88828125 11.42578125 7.5390625 C11.94527344 8.02117187 12.46476562 8.50328125 13 9 C7.50280742 15.69529866 1.39046848 21.73696491 -4.7421875 27.83984375 C-5.87726406 28.97305199 -7.01211763 30.10648362 -8.14675903 31.24012756 C-11.11350744 34.20308335 -14.08324802 37.16302193 -17.0536499 40.12231445 C-20.0922886 43.15066856 -23.12804909 46.18190499 -26.1640625 49.21289062 C-32.1065826 55.14473089 -38.052271 61.07338261 -44 67 C-47.28916201 65.45710408 -49.09777662 64.0376635 -51.3125 61.125 C-51.84488281 60.44695312 -52.37726563 59.76890625 -52.92578125 59.0703125 C-54 57 -54 57 -53.87831116 55.20306396 C-52.62054654 52.04821856 -50.40644583 50.01357954 -48.02124023 47.68066406 C-47.50415497 47.16314072 -46.9870697 46.64561737 -46.45431519 46.1124115 C-44.74609034 44.40627403 -43.02749105 42.71100408 -41.30859375 41.015625 C-40.12109704 39.83372441 -38.93426165 38.65115904 -37.74806213 37.46795654 C-34.6261371 34.35747898 -31.49530756 31.25611608 -28.36254883 28.15655518 C-25.16661903 24.99132819 -21.9791781 21.81757832 -18.79101562 18.64453125 C-12.53563046 12.42130852 -6.27080675 6.20768022 0 0 Z " fill="#118BE1" transform="translate(246,265)"/>
<path d="M0 0 C3.45244657 1.91802587 4.71622156 3.21543607 6.0625 6.9375 C6.47426824 11.80481175 4.55062085 16.3719484 3.0078125 20.9140625 C1.04259343 26.93159376 0.92907758 32.22819976 1.078125 38.5 C1.10537477 40.37498283 1.13137848 42.24998411 1.15625 44.125 C1.19953255 47.06821374 1.25025607 50.01046438 1.32226562 52.953125 C1.38892261 55.80223501 1.42365005 58.65029426 1.453125 61.5 C1.48206848 62.37720703 1.51101196 63.25441406 1.54083252 64.15820312 C1.56017628 68.58111607 1.44022518 70.41849325 -1.30957031 74.05078125 C-4 76 -4 76 -7.5 76.6875 C-11.2539121 75.95012441 -12.86510262 74.99470693 -15.07885742 71.85522461 C-18.70729556 64.54737902 -17.25470641 53.81479545 -17.29516602 45.76416016 C-17.30664473 44.18203763 -17.32703114 42.59995257 -17.35668945 41.01806641 C-17.61344007 27.25680727 -16.32963155 14.05842609 -9 2 C-5.48746854 -0.34168764 -4.13530644 -0.49623677 0 0 Z " fill="#FED67E" transform="translate(170,247)"/>
<path d="M0 0 C1.72783292 6.45057624 2.88259171 12.90904595 3.9375 19.5 C4.29071367 21.64859438 4.64488142 23.79703214 5 25.9453125 C5.17144531 26.98461914 5.34289062 28.02392578 5.51953125 29.09472656 C11.07555673 64.06583918 11.07555673 64.06583918 27 95 C27.99 96.485 27.99 96.485 29 98 C21.76237624 100.69306931 21.76237624 100.69306931 18 100 C0.18520771 80.20970599 -3.29217532 43.19135177 -7.4375 18.0625 C-7.7017981 16.48106201 -7.7017981 16.48106201 -7.97143555 14.86767578 C-8.12394775 13.89169434 -8.27645996 12.91571289 -8.43359375 11.91015625 C-8.56822021 11.05558838 -8.70284668 10.20102051 -8.84155273 9.32055664 C-9.00648938 6.90495901 -8.85753406 5.26032631 -8 3 C-5.09303401 0.85802506 -3.64478912 0 0 0 Z " fill="#D52333" transform="translate(147,325)"/>
<path d="M0 0 C3.07745908 1.21465217 6.06176804 2.47647232 9 4 C9.12093423 9.65208389 8.73795669 14.92861846 7.8125 20.5 C7.61394409 21.71345093 7.61394409 21.71345093 7.41137695 22.95141602 C3.81467345 44.32363001 -1.29264834 64.89762648 -8.5625 85.3125 C-8.8311084 86.08311768 -9.0997168 86.85373535 -9.37646484 87.64770508 C-11.25371877 92.75138375 -13.67292596 96.69470932 -17 101 C-20.3 100.67 -23.6 100.34 -27 100 C-27 96.46498746 -26.40913305 95.97645186 -24.21875 93.34765625 C-21.04337436 89.25637854 -19.18782471 85.30658688 -17.5 80.4375 C-17.21012207 79.6223291 -16.92024414 78.8071582 -16.62158203 77.96728516 C-7.92343104 52.81240333 -3.21890633 26.35315993 0 0 Z " fill="#D42132" transform="translate(307,324)"/>
<path d="M0 0 C0.69738281 0.00451172 1.39476562 0.00902344 2.11328125 0.01367188 C3.82555803 0.0253998 5.53779033 0.04333347 7.25 0.0625 C2.50677316 5.75941415 -2.56023565 11.03356147 -7.796875 16.27734375 C-8.64928772 17.13308487 -9.50170044 17.98882599 -10.37994385 18.87049866 C-12.17044089 20.66603303 -13.96227292 22.46023705 -15.75537109 24.25317383 C-18.51036932 27.01037762 -21.25725249 29.7755022 -24.00390625 32.54101562 C-25.74690672 34.28694677 -27.49037951 36.03240653 -29.234375 37.77734375 C-30.47027374 39.02402077 -30.47027374 39.02402077 -31.73114014 40.29588318 C-32.49243225 41.05409866 -33.25372437 41.81231415 -34.03808594 42.59350586 C-35.04352448 43.60108192 -35.04352448 43.60108192 -36.0692749 44.62901306 C-37.75 46.0625 -37.75 46.0625 -39.75 46.0625 C-40.56491639 33.29547653 -37.77567101 23.6210025 -29.890625 13.47265625 C-21.83748498 4.40552598 -11.99806164 -0.1474242 0 0 Z " fill="#148CDE" transform="translate(225.75,259.9375)"/>
<path d="M0 0 C0.51059967 0.16233124 1.02119934 0.32466248 1.54727173 0.49191284 C4.81245303 1.16830114 7.90820604 1.12736168 11.24365234 1.12939453 C11.96611649 1.13114685 12.68858063 1.13289917 13.43293762 1.13470459 C15.81729548 1.13909966 18.20157891 1.13619274 20.5859375 1.1328125 C22.24736546 1.13348636 23.90879332 1.13445707 25.57022095 1.13571167 C29.05203185 1.13718559 32.53381708 1.13504443 36.015625 1.13037109 C40.46980529 1.12468287 44.9239252 1.12794899 49.37810326 1.13394356 C52.8096868 1.13756499 56.24125614 1.13640316 59.67284012 1.13381577 C61.31462232 1.13315041 62.95640582 1.13396119 64.59818649 1.13629532 C66.89801168 1.13884683 69.19774054 1.13494576 71.49755859 1.12939453 C72.80453705 1.12859894 74.1115155 1.12780334 75.45809937 1.12698364 C78.73353013 1.00955343 81.78680004 0.62447787 85 0 C84.67 2.97 84.34 5.94 84 9 C56.61 9 29.22 9 1 9 C-0.4783226 6.04335481 -0.06032783 3.25770263 0 0 Z " fill="#2C2C2C" transform="translate(186,428)"/>
<path d="M0 0 C2.63016161 2.1727422 4.47336894 3.94673788 6 7 C7.05533009 18.75939245 7.05533009 18.75939245 4.953125 23.22265625 C2.34766527 26.34154481 0.19492468 27.86723059 -3.8125 28.3125 C-7.7307645 27.92835642 -9.21293267 26.70743683 -12 24 C-13.55743688 20.88512623 -13.26686231 17.60424191 -13.3125 14.1875 C-13.34150391 13.47529297 -13.37050781 12.76308594 -13.40039062 12.02929688 C-13.44530392 8.29458362 -13.14178313 6.22071395 -11.10546875 3.05078125 C-7.5274012 -0.43434948 -4.94369188 -0.50274833 0 0 Z " fill="#FEFEFE" transform="translate(35,251)"/>
<path d="M0 0 C-0.25452175 12.17076752 -4.35273301 20.01724944 -12.671875 28.8046875 C-18.89819113 34.6758111 -26.78324704 39.15680721 -35.5 39.1875 C-36.655 39.125625 -37.81 39.06375 -39 39 C-34.69849478 33.86187175 -30.19337975 29.0461448 -25.44921875 24.31640625 C-24.74980667 23.61603745 -24.05039459 22.91566864 -23.32978821 22.19407654 C-21.86455991 20.72817238 -20.39808666 19.26351161 -18.93041992 17.80004883 C-16.67314318 15.54817756 -14.42131555 13.2909546 -12.16992188 11.03320312 C-10.74250846 9.60644965 -9.31478535 8.18000594 -7.88671875 6.75390625 C-6.87275276 5.73690392 -6.87275276 5.73690392 -5.83830261 4.69935608 C-5.21708023 4.08128586 -4.59585785 3.46321564 -3.95581055 2.82641602 C-3.40765182 2.27905289 -2.8594931 1.73168976 -2.29472351 1.16773987 C-1 0 -1 0 0 0 Z " fill="#138BDE" transform="translate(268,302)"/>
<path d="M0 0 C2.81494141 0.94384766 2.81494141 0.94384766 4.81494141 3.94384766 C4.45090197 10.4037503 -0.53049152 13.90958414 -4.87255859 18.19384766 C-5.67628906 19.02142578 -6.48001953 19.84900391 -7.30810547 20.70166016 C-8.09636719 21.48798828 -8.88462891 22.27431641 -9.69677734 23.08447266 C-10.41309326 23.80151367 -11.12940918 24.51855469 -11.86743164 25.25732422 C-14.67526497 27.30056794 -16.74510975 27.7152875 -20.18505859 27.94384766 C-22.06005859 26.81884766 -22.06005859 26.81884766 -23.18505859 24.94384766 C-23.66477621 21.59007592 -23.44807936 20.3094207 -21.44433594 17.52441406 C-18.83361222 14.85372207 -16.21572899 12.19496957 -13.56005859 9.56884766 C-12.65642578 8.62912109 -11.75279297 7.68939453 -10.82177734 6.72119141 C-9.93876953 5.83818359 -9.05576172 4.95517578 -8.14599609 4.04541016 C-7.33952637 3.23410645 -6.53305664 2.42280273 -5.70214844 1.58691406 C-3.18505859 -0.05615234 -3.18505859 -0.05615234 0 0 Z " fill="#4AB4FE" transform="translate(358.18505859375,335.05615234375)"/>
</svg>
